<svg width="24" height="25" viewBox="0 0 24 25" fill="none" xmlns="http://www.w3.org/2000/svg">
<path fill-rule="evenodd" clip-rule="evenodd" d="M16.5484 9.80256C16.5484 13.5677 13.5073 16.6051 9.7742 16.6051C6.04113 16.6051 3.00003 13.5677 3.00003 9.80256C3.00003 6.0374 6.04113 3 9.7742 3C13.5073 3 16.5484 6.0374 16.5484 9.80256ZM15.014 18.079C13.4996 19.0453 11.7021 19.6051 9.7742 19.6051C4.37607 19.6051 3.05176e-05 15.2164 3.05176e-05 9.80256C3.05176e-05 4.38876 4.37607 0 9.7742 0C15.1723 0 19.5484 4.38876 19.5484 9.80256C19.5484 12.1971 18.6922 14.3912 17.2702 16.0936L23.4844 22.3511L21.3704 24.4797L15.014 18.079Z" fill="black"/>
</svg>
